<svg width="117" height="74" viewBox="0 0 117 74" fill="none" xmlns="http://www.w3.org/2000/svg">
<g clip-path="url(#clip0_190_240368)">
<path d="M87.3181 0.862414C88.015 0.381548 89.0398 0.499794 89.6105 1.12571C91.8304 3.44332 94.0471 5.76252 96.2654 8.08171C96.2686 6.15509 96.2559 4.2269 96.2701 2.29871C96.2717 1.36851 97.1136 0.548669 98.0422 0.569165C100.259 0.566011 102.477 0.564436 104.694 0.570743C105.675 0.56286 106.505 1.49148 106.435 2.46267C106.435 7.67022 106.433 12.8793 106.435 18.0885C106.398 18.295 106.581 18.4274 106.692 18.574C109.856 22.1813 113.011 25.7981 116.164 29.4148C116.818 30.1464 116.686 31.3966 115.9 31.9815C115.175 32.5806 114.004 32.4545 113.414 31.7277C110.152 27.999 106.896 24.264 103.633 20.5353C103.232 20.1128 102.832 19.6146 102.843 18.9997C102.827 14.0539 102.841 9.10651 102.837 4.16068C101.843 4.15753 100.85 4.15911 99.8585 4.15911C99.8553 6.74632 99.8538 9.33354 99.8585 11.9223C99.8569 12.4458 99.9074 13.0149 99.6078 13.4769C99.1979 14.2021 98.2472 14.5505 97.4652 14.2589C96.9796 14.1044 96.6564 13.6913 96.3159 13.3397C93.6419 10.5444 90.9696 7.74747 88.2941 4.95372C79.6747 13.7953 71.0523 22.6354 62.4361 31.4817C62.0703 31.8964 61.5879 32.2574 61.014 32.2748C60.0885 32.3583 59.1946 31.6126 59.111 30.6871C59.0401 30.1322 59.2561 29.5662 59.6534 29.1799C68.5297 20.075 77.4028 10.9701 86.2792 1.86672C86.6229 1.52932 86.9287 1.14936 87.3181 0.862414Z" fill="white"/>
<path d="M60.22 53.3759C61.1927 53.0369 62.1655 52.6964 63.1399 52.3574C63.1446 53.7291 63.1399 55.0991 63.1414 56.4708C64.0243 56.4755 64.9088 56.4692 65.7933 56.4724C65.7917 57.1945 65.7933 57.9181 65.7917 58.6402C64.9088 58.6418 64.0243 58.6386 63.1414 58.6434C63.1446 60.5148 63.1367 62.3862 63.143 64.2592C63.1493 64.7969 63.2581 65.4449 63.7721 65.7381C64.4374 66.0818 65.1942 65.7665 65.8185 65.4748C65.8169 66.2789 65.8169 67.083 65.8169 67.887C64.5178 68.3553 62.9696 68.5098 61.7272 67.8019C60.6283 67.146 60.261 65.7823 60.231 64.5793C60.2058 62.5991 60.2294 60.6204 60.2184 58.6402C59.6587 58.6402 59.1006 58.6402 58.5409 58.6418C58.5377 57.9181 58.5393 57.1945 58.5409 56.4724C59.1006 56.4724 59.6587 56.4724 60.2184 56.4724C60.2215 55.4397 60.2184 54.4086 60.22 53.3759Z" fill="white"/>
<path d="M18.1836 52.6274C19.7098 52.6242 21.2375 52.6242 22.7652 52.6274C24.1164 56.427 25.4723 60.2235 26.8266 64.0215C28.1462 60.2235 29.4611 56.4238 30.7791 52.6258C32.2848 52.6242 33.7889 52.6258 35.2945 52.6258C35.2961 57.7561 35.2977 62.8864 35.2945 68.0167C34.3218 68.0167 33.3474 68.0167 32.3747 68.0167C32.3731 64.124 32.3747 60.2298 32.3731 56.3371C31.0172 60.2282 29.6629 64.1224 28.3117 68.0151C27.2932 68.0166 26.2732 68.0182 25.2547 68.0167C23.8704 64.1366 22.4972 60.2534 21.1082 56.375C21.1035 60.255 21.1082 64.1366 21.105 68.0167C20.1323 68.0167 19.1579 68.0151 18.1836 68.0167C18.1836 62.8864 18.1852 57.7561 18.1836 52.6274Z" fill="white"/>
<path d="M42.1632 56.3531C43.9416 56.0015 45.9329 56.2537 47.3881 57.4015C49.064 58.7069 49.6363 60.9788 49.433 63.0158C49.3053 64.5152 48.6746 66.0224 47.4985 66.9968C46.2766 68.0247 44.6133 68.3826 43.0493 68.258C41.6997 68.1666 40.3517 67.6416 39.401 66.6625C38.4456 65.6882 37.9395 64.3417 37.8275 62.9969C37.6888 61.4408 37.9552 59.7964 38.8523 58.4909C39.6107 57.3668 40.8452 56.6211 42.1632 56.3531ZM42.9531 58.6927C41.8258 58.9119 41.1148 60.0061 40.9666 61.0845C40.7916 62.3032 40.8042 63.6496 41.4616 64.7327C42.3083 66.1548 44.6148 66.262 45.6255 64.9724C46.2782 64.1589 46.4027 63.0678 46.387 62.0588C46.3633 61.0908 46.171 60.0344 45.4599 59.3218C44.823 58.6612 43.8202 58.5051 42.9531 58.6927Z" fill="white"/>
<path d="M55.8414 56.4075C56.3743 56.1568 56.9765 56.2073 57.5488 56.2073C57.5504 57.1643 57.552 58.1213 57.5473 59.0799C56.4216 59.0326 55.2375 59.2675 54.3657 60.0243C54.3672 62.6887 54.3672 65.3516 54.3657 68.0161C53.3913 68.0145 52.4185 68.0177 51.4442 68.0145C51.4426 65.0836 51.4489 62.1511 51.4426 59.2202C51.3465 58.2947 51.1068 57.3897 50.957 56.4722C51.9314 56.4737 52.9057 56.4706 53.8801 56.4737C53.9747 56.9767 54.0708 57.4796 54.1623 57.9841C54.6368 57.3819 55.1272 56.737 55.8414 56.4075Z" fill="white"/>
<path d="M69.7453 56.6192C71.4701 55.8971 73.4393 56.1951 75.1089 56.9314C75.1373 56.8163 75.194 56.5877 75.224 56.4741C76.1967 56.4726 77.1695 56.4726 78.1439 56.4726C77.972 57.5967 77.5968 58.7035 77.6567 59.8512C77.6614 62.3218 77.6567 64.7923 77.6598 67.2629C77.6992 68.655 77.5889 70.1481 76.7454 71.3148C75.6654 72.8488 73.6994 73.4369 71.8973 73.4085C70.2214 73.4542 68.5864 72.8914 67.1722 72.0179C67.1738 71.1019 67.1738 70.1875 67.1738 69.2715C68.6669 70.4224 70.5966 71.0814 72.487 70.7976C73.2154 70.6936 73.9548 70.3436 74.3379 69.6877C74.8062 68.9183 74.7305 67.9818 74.7321 67.1194C73.3005 67.8793 71.5631 68.0843 70.0085 67.6066C68.6164 67.1809 67.5553 65.989 67.1107 64.6252C66.6519 63.2 66.6283 61.6501 66.9326 60.1918C67.2558 58.6577 68.2695 57.2262 69.7453 56.6192ZM70.1725 59.8623C69.7326 60.9549 69.7642 62.1767 69.895 63.3292C69.9944 64.1097 70.3444 65.0131 71.1815 65.2432C72.4113 65.5302 73.671 65.0556 74.7321 64.4549C74.7305 62.6103 74.7321 60.7657 74.7321 58.921C73.8129 58.6609 72.8464 58.642 71.8989 58.683C71.161 58.7145 70.4468 59.1638 70.1725 59.8623Z" fill="white"/>
<path d="M80.1744 57.6798C82.0206 56.2308 84.5431 55.9076 86.7835 56.4374C87.8335 56.6944 88.8489 57.3203 89.3392 58.3135C89.7665 59.1223 89.7933 60.0604 89.7743 60.9544C89.7743 62.4206 89.7633 63.8884 89.7775 65.3547C89.891 66.2486 90.1086 67.1268 90.2615 68.0144C89.2856 68.0176 88.3112 68.016 87.3369 68.016C87.2407 67.5556 87.1446 67.0937 87.0531 66.6333C86.2837 67.4279 85.2905 68.0333 84.1853 68.2036C82.7647 68.4322 81.1345 68.1768 80.1176 67.0779C79.2363 66.1588 79.1653 64.7304 79.5658 63.5763C79.9379 62.501 80.8949 61.7253 81.9449 61.3564C83.5105 60.7951 85.2053 60.8834 86.8371 60.9985C86.897 60.1803 86.6936 59.1555 85.8092 58.8654C83.8337 58.2458 81.7447 59.0955 80.1744 60.3001C80.1744 59.4266 80.1744 58.5532 80.1744 57.6798ZM83.9708 63.0796C83.3891 63.1474 82.6843 63.3114 82.4226 63.9058C82.2177 64.4056 82.1688 65.0252 82.4431 65.5108C82.7395 65.9822 83.3544 66.0626 83.8652 66.0405C84.8332 66.0184 85.7382 65.5675 86.4603 64.9448C87.1272 64.5443 86.7236 63.6693 86.8292 63.0402C85.877 63.0576 84.9215 63.0024 83.9708 63.0796Z" fill="white"/>
<path d="M94.1751 56.7417C95.944 55.8667 98.0519 56.1568 99.8036 56.9309C99.8304 56.8158 99.8871 56.5872 99.9155 56.4737C100.888 56.4721 101.861 56.4737 102.835 56.4737C102.667 57.5962 102.287 58.6983 102.347 59.8445C102.348 62.6288 102.351 65.4146 102.347 68.1989C102.339 69.6053 101.885 71.0904 100.792 72.0348C99.504 73.1889 97.6862 73.4932 96.0118 73.3923C94.5314 73.3355 93.1187 72.779 91.8653 72.0175C91.8685 71.1015 91.8669 70.1855 91.8669 69.271C93.3442 70.4125 95.2471 71.0652 97.1217 70.8067C97.8769 70.7089 98.6511 70.3526 99.0405 69.6683C99.5024 68.9005 99.4204 67.9735 99.4267 67.1174C98.0283 67.86 96.3429 68.0712 94.8152 67.6424C93.4719 67.2672 92.3998 66.1856 91.9047 64.8991C91.3734 63.5211 91.3293 61.995 91.5531 60.5508C91.7991 58.9789 92.7167 57.4559 94.1751 56.7417ZM94.8814 59.8287C94.4273 60.9229 94.4557 62.1542 94.585 63.3114C94.6796 64.1124 95.0517 65.0426 95.9172 65.2554C97.1344 65.5155 98.372 65.0489 99.4236 64.4576C99.4283 62.613 99.4252 60.7684 99.4267 58.9237C98.5265 58.6652 97.5805 58.6463 96.6519 58.6794C95.9077 58.6983 95.1683 59.124 94.8814 59.8287Z" fill="white"/>
<path d="M105.475 58.1062C106.956 56.2411 109.705 55.7602 111.864 56.5958C113.046 57.0546 113.983 58.0369 114.463 59.202C115.009 60.4333 115.061 61.8034 115.031 63.1293C112.354 63.1325 109.677 63.1262 107.001 63.1309C107.129 63.9681 107.476 64.8305 108.203 65.3239C109.12 65.9656 110.32 65.9404 111.376 65.7386C112.499 65.5179 113.563 65.0591 114.533 64.4584C114.552 65.264 114.539 66.0697 114.542 66.8769C112.958 68.0751 110.869 68.4819 108.923 68.1918C107.701 68.0136 106.513 67.4697 105.666 66.5569C104.729 65.5573 104.26 64.1935 104.175 62.8408C104.055 61.1822 104.411 59.4211 105.475 58.1062ZM108.46 58.8803C107.654 59.3518 107.238 60.2536 107.047 61.1333C108.706 61.1349 110.366 61.1349 112.026 61.1317C111.897 60.3892 111.689 59.604 111.126 59.0664C110.415 58.4089 109.27 58.4168 108.46 58.8803Z" fill="white"/>
<path d="M81.2188 30.081C82.3324 29.6296 83.7168 30.5103 83.6851 31.7331C83.8039 32.8451 82.7284 33.8383 81.6306 33.653C80.6296 33.5769 79.8819 32.56 80.0514 31.5795C80.0989 30.9047 80.5836 30.3012 81.2188 30.081Z" fill="white"/>
<path d="M47.7695 30.2428C48.7484 30.2412 49.7258 30.2444 50.7047 30.2412C50.7095 32.3543 50.7047 34.4658 50.7047 36.5788C51.4096 35.9706 52.2048 35.4209 53.1314 35.2308C54.4541 34.96 55.9715 35.1928 56.9647 36.167C57.6997 36.8545 58.0466 37.8761 58.0323 38.8677C58.0308 41.5764 58.0339 44.285 58.0308 46.9937C57.0534 46.9937 56.0761 46.9937 55.0988 46.9937C55.0924 44.8173 55.0972 42.6408 55.0972 40.466C55.0766 39.7453 55.0386 38.9659 54.6156 38.3513C54.2149 37.7938 53.4498 37.6686 52.8099 37.7573C51.9719 37.8936 51.2892 38.4559 50.7047 39.0356C50.7063 41.6889 50.7063 44.3405 50.7047 46.9921C49.7258 46.9953 48.7484 46.9937 47.7695 46.9937C47.7695 41.4101 47.7711 35.8264 47.7695 30.2428Z" fill="white"/>
<path d="M1.67701 33.0255C2.47535 32.0276 3.7283 31.5065 4.96858 31.3449C6.8884 31.1041 8.89059 31.3956 10.6298 32.2589C10.6298 33.1871 10.6298 34.1153 10.6314 35.0436C9.19631 34.2579 7.57745 33.7098 5.92374 33.8112C5.27271 33.8556 4.55833 34.0156 4.11639 34.5335C3.62059 35.1354 3.79642 36.1397 4.47437 36.5325C6.2247 37.6049 8.41381 37.8679 9.99148 39.2412C11.9667 40.9218 11.9477 44.4146 9.91386 46.0414C8.85575 46.9205 7.44756 47.2484 6.0964 47.2579C4.2336 47.2626 2.3914 46.7795 0.699676 46.0176C0.70126 45.0672 0.698092 44.1168 0.699676 43.168C2.17597 43.9457 3.7679 44.6031 5.45171 44.7092C6.24054 44.7567 7.09749 44.6759 7.74852 44.1801C8.46608 43.6638 8.59755 42.5185 8.02572 41.8485C7.68199 41.4303 7.20045 41.1579 6.70783 40.9472C5.41369 40.388 4.04511 39.9857 2.82067 39.2745C1.88768 38.6979 1.11627 37.7744 0.921437 36.6751C0.694924 35.4301 0.862829 34.0361 1.67701 33.0255Z" fill="white"/>
<path d="M40.2683 32.2828C41.2456 31.9422 42.2213 31.5969 43.2019 31.2627C43.205 32.6376 43.2034 34.0125 43.2019 35.3875C44.0889 35.3922 44.9759 35.3875 45.8646 35.3922C45.8662 36.1177 45.8646 36.8447 45.8662 37.5718C44.9775 37.575 44.0905 37.5702 43.2034 37.5766C43.2066 39.4885 43.1955 41.3988 43.2066 43.3107C43.2129 43.8572 43.3761 44.5114 43.9273 44.749C44.5863 45.0167 45.2896 44.7189 45.8915 44.4432C45.8883 45.2495 45.8899 46.0542 45.8915 46.8604C44.5831 47.3404 43.0197 47.4861 41.7699 46.7717C40.6484 46.0954 40.2936 44.6904 40.273 43.4643C40.2588 41.5002 40.2699 39.5376 40.2683 37.5734C39.7044 37.5734 39.142 37.5718 38.5781 37.5734C38.5781 36.8463 38.5781 36.1177 38.5781 35.3922C39.1404 35.3922 39.7044 35.3922 40.2683 35.389C40.2683 34.3531 40.2651 33.3187 40.2683 32.2828Z" fill="white"/>
<path d="M66.4655 31.53C68.4614 31.5316 70.4573 31.5205 72.4515 31.5347C73.9104 31.5822 75.4722 31.8357 76.6222 32.8067C77.5204 33.5512 77.9639 34.7217 78.0066 35.867C78.0763 37.1199 77.7976 38.4537 76.9501 39.4168C76.4622 39.9918 75.7985 40.3751 75.1158 40.6681C76.25 42.778 77.3936 44.8816 78.5278 46.9915C77.4522 46.9931 76.3783 46.9915 75.3043 46.9931C74.2494 45.0321 73.2023 43.0679 72.149 41.1085C71.2318 41.1085 70.3163 41.1053 69.4023 41.1085C69.3991 43.0695 69.4023 45.0321 69.3991 46.9931C68.4218 46.9915 67.4429 46.9947 66.4655 46.9915C66.464 41.8387 66.4655 36.6843 66.4655 31.53ZM69.4007 34.1341C69.4007 35.5961 69.396 37.0597 69.4023 38.5234C70.4763 38.5123 71.5534 38.5503 72.6273 38.5012C73.3988 38.441 74.3143 38.2224 74.6866 37.4621C75.0002 36.7509 75.0145 35.8907 74.704 35.1764C74.3634 34.4588 73.5112 34.2386 72.7873 34.1689C71.6611 34.0945 70.5301 34.1483 69.4007 34.1341Z" fill="white"/>
<path d="M97.8287 37.1901C99.2718 35.2053 102.112 34.6588 104.334 35.5063C105.486 35.945 106.419 36.8748 106.916 37.9963C107.515 39.2683 107.581 40.7018 107.548 42.0831C104.859 42.0831 102.169 42.0815 99.4793 42.0847C99.6107 43.2663 100.379 44.4353 101.592 44.703C103.493 45.1212 105.437 44.3831 107.054 43.42C107.065 44.2278 107.057 45.0341 107.062 45.8419C105.601 46.9539 103.704 47.3863 101.895 47.2264C100.602 47.1218 99.3082 46.6498 98.3578 45.7485C97.3789 44.8266 96.8292 43.5182 96.6787 42.1955C96.4728 40.4674 96.7658 38.6078 97.8287 37.1901ZM100.371 38.2846C99.9101 38.7788 99.6788 39.4299 99.5268 40.0761C101.195 40.0761 102.863 40.0825 104.531 40.073C104.387 39.2556 104.136 38.3575 103.431 37.8443C102.494 37.2107 101.106 37.4388 100.371 38.2846Z" fill="white"/>
<path d="M114.019 35.3129C114.543 35.0737 115.129 35.1323 115.69 35.1292C115.693 36.0907 115.691 37.0537 115.69 38.0152C114.557 37.9709 113.35 38.1974 112.485 38.9815C112.503 41.6505 112.489 44.3228 112.493 46.9934C111.514 46.9934 110.536 46.9934 109.558 46.9934C109.557 44.0725 109.56 41.1531 109.56 38.2338C109.488 37.2739 109.216 36.3409 109.07 35.3905C110.049 35.3905 111.028 35.3874 112.009 35.3921C112.102 35.899 112.197 36.4059 112.292 36.9127C112.778 36.2982 113.279 35.6329 114.019 35.3129Z" fill="white"/>
<path d="M17.3937 35.3289C19.1045 34.9297 21.0211 35.0913 22.518 36.067C23.668 36.8083 24.4442 38.0407 24.7562 39.3602C25.2346 41.4463 24.9511 43.8619 23.4763 45.5014C22.4848 46.6007 21.0116 47.1757 19.5496 47.2438C18.0432 47.3372 16.456 46.9824 15.2696 46.0098C14.1196 45.0864 13.467 43.6544 13.2991 42.2082C13.1122 40.602 13.3371 38.885 14.2416 37.5132C14.956 36.4076 16.1234 35.6393 17.3937 35.3289ZM18.1826 37.6906C17.1245 38.0185 16.532 39.1115 16.4069 40.1538C16.2564 41.3766 16.2818 42.7341 16.9914 43.7906C17.9085 45.1719 20.237 45.1925 21.1827 43.8334C21.7878 43.0034 21.8939 41.9278 21.8702 40.9315C21.8401 39.9859 21.6405 38.9657 20.9514 38.2672C20.2497 37.5401 19.1156 37.4023 18.1826 37.6906Z" fill="white"/>
<path d="M26.8769 35.391C27.8559 35.391 28.8332 35.3894 29.8121 35.3926C29.8121 37.5564 29.8105 39.7217 29.8137 41.887C29.828 42.6743 29.8992 43.5392 30.4235 44.1712C30.8148 44.648 31.4943 44.7256 32.0662 44.61C32.9089 44.4722 33.5947 43.9162 34.2014 43.3523C34.203 40.699 34.203 38.0458 34.203 35.3926C35.1803 35.3894 36.1592 35.391 37.1366 35.3926C37.1429 38.35 37.1302 41.3089 37.1429 44.2678C37.2427 45.185 37.4803 46.0815 37.626 46.9923C36.7295 46.9939 35.8329 46.9955 34.9364 46.9923C34.797 46.4918 34.656 45.9912 34.5166 45.4923C33.411 46.4902 32.0424 47.3677 30.4853 47.2568C28.6083 47.2901 26.9181 45.6712 26.888 43.7894C26.8627 40.9905 26.8833 38.19 26.8769 35.391Z" fill="white"/>
<path d="M80.3948 35.4181C81.3737 35.4101 82.3526 35.3975 83.3315 35.3975C83.3157 39.2672 83.3553 43.1385 83.3125 47.0067C82.3399 46.9797 81.369 47.0003 80.398 46.9924C80.3932 43.1338 80.3948 39.2767 80.3948 35.4181Z" fill="white"/>
<path d="M84.3281 35.3922C85.3213 35.3906 86.3145 35.3906 87.3092 35.3922C88.3642 38.4398 89.4223 41.4859 90.4788 44.5335C91.5433 41.4875 92.5935 38.4367 93.6564 35.3906C94.6194 35.3922 95.5825 35.389 96.5456 35.3922C95.12 39.2604 93.6896 43.1269 92.2577 46.9935C91.0427 46.9951 89.8294 46.9935 88.6145 46.9935C87.1841 43.1269 85.7522 39.2604 84.3281 35.3922Z" fill="white"/>
</g>
<defs>
<clipPath id="clip0_190_240368">
<rect width="117" height="74" fill="white"/>
</clipPath>
</defs>
</svg>
